<svg id="visual" viewBox="0 0 900 500" width="900" height="500" xmlns="http://www.w3.org/2000/svg" xmlns:xlink="http://www.w3.org/1999/xlink" version="1.1"><path d="M0 243L16.7 247.8C33.3 252.7 66.7 262.3 100 269C133.3 275.7 166.7 279.3 200 269.3C233.3 259.3 266.7 235.7 300 222.5C333.3 209.3 366.7 206.7 400 207.5C433.3 208.3 466.7 212.7 500 227.5C533.3 242.3 566.7 267.7 600 276.7C633.3 285.7 666.7 278.3 700 270.3C733.3 262.3 766.7 253.7 800 257.3C833.3 261 866.7 277 883.3 285L900 293L900 501L883.3 501C866.7 501 833.3 501 800 501C766.7 501 733.3 501 700 501C666.7 501 633.3 501 600 501C566.7 501 533.3 501 500 501C466.7 501 433.3 501 400 501C366.7 501 333.3 501 300 501C266.7 501 233.3 501 200 501C166.7 501 133.3 501 100 501C66.7 501 33.3 501 16.7 501L0 501Z" fill="#ffffff" stroke-linecap="round" stroke-linejoin="miter"></path></svg>