<svg id="visual" viewBox="0 0 900 100" width="900" height="100" xmlns="http://www.w3.org/2000/svg" xmlns:xlink="http://www.w3.org/1999/xlink" version="1.1"><path d="M0 37L12.5 34.7C25 32.3 50 27.7 75 35.2C100 42.7 125 62.3 150 70.3C175 78.3 200 74.7 225 65.2C250 55.7 275 40.3 300 38.5C325 36.7 350 48.3 375 48.2C400 48 425 36 450 40.5C475 45 500 66 525 73.3C550 80.7 575 74.3 600 63.5C625 52.7 650 37.3 675 34.3C700 31.3 725 40.7 750 47.2C775 53.7 800 57.3 825 55.7C850 54 875 47 887.5 43.5L900 40L900 101L887.5 101C875 101 850 101 825 101C800 101 775 101 750 101C725 101 700 101 675 101C650 101 625 101 600 101C575 101 550 101 525 101C500 101 475 101 450 101C425 101 400 101 375 101C350 101 325 101 300 101C275 101 250 101 225 101C200 101 175 101 150 101C125 101 100 101 75 101C50 101 25 101 12.5 101L0 101Z" fill="#ffffff" stroke-linecap="round" stroke-linejoin="miter"></path></svg>