<svg id="visual" viewBox="0 0 900 500" width="900" height="500" xmlns="http://www.w3.org/2000/svg" xmlns:xlink="http://www.w3.org/1999/xlink" version="1.1"><path d="M0 220L16.7 218.2C33.3 216.3 66.7 212.7 100 218.5C133.3 224.3 166.7 239.7 200 247.7C233.3 255.7 266.7 256.3 300 257.7C333.3 259 366.7 261 400 261C433.3 261 466.7 259 500 261.2C533.3 263.3 566.7 269.7 600 272.3C633.3 275 666.7 274 700 269.8C733.3 265.7 766.7 258.3 800 249.5C833.3 240.7 866.7 230.3 883.3 225.2L900 220L900 501L883.3 501C866.7 501 833.3 501 800 501C766.7 501 733.3 501 700 501C666.7 501 633.3 501 600 501C566.7 501 533.3 501 500 501C466.7 501 433.3 501 400 501C366.7 501 333.3 501 300 501C266.7 501 233.3 501 200 501C166.7 501 133.3 501 100 501C66.7 501 33.3 501 16.7 501L0 501Z" fill="#ffffff" stroke-linecap="round" stroke-linejoin="miter"></path></svg>