<svg id="visual" viewBox="0 0 900 500" width="900" height="500" xmlns="http://www.w3.org/2000/svg" xmlns:xlink="http://www.w3.org/1999/xlink" version="1.1"><path d="M0 222L16.7 233.5C33.3 245 66.7 268 100 265.2C133.3 262.3 166.7 233.7 200 232.3C233.3 231 266.7 257 300 271.5C333.3 286 366.7 289 400 279.5C433.3 270 466.7 248 500 246.5C533.3 245 566.7 264 600 268.3C633.3 272.7 666.7 262.3 700 255.5C733.3 248.7 766.7 245.3 800 249.3C833.3 253.3 866.7 264.7 883.3 270.3L900 276L900 501L883.3 501C866.7 501 833.3 501 800 501C766.7 501 733.3 501 700 501C666.7 501 633.3 501 600 501C566.7 501 533.3 501 500 501C466.7 501 433.3 501 400 501C366.7 501 333.3 501 300 501C266.7 501 233.3 501 200 501C166.7 501 133.3 501 100 501C66.7 501 33.3 501 16.7 501L0 501Z" fill="#ffffff" stroke-linecap="round" stroke-linejoin="miter"></path></svg>