<svg id="visual" viewBox="0 0 900 100" width="900" height="100" xmlns="http://www.w3.org/2000/svg" xmlns:xlink="http://www.w3.org/1999/xlink" version="1.1"><path d="M0 43L12.5 49C25 55 50 67 75 72.8C100 78.7 125 78.3 150 69.5C175 60.7 200 43.3 225 37.5C250 31.7 275 37.3 300 47.5C325 57.7 350 72.3 375 72.8C400 73.3 425 59.7 450 54C475 48.3 500 50.7 525 46C550 41.3 575 29.7 600 28.7C625 27.7 650 37.3 675 40.2C700 43 725 39 750 34.2C775 29.3 800 23.7 825 22.8C850 22 875 26 887.5 28L900 30L900 101L887.5 101C875 101 850 101 825 101C800 101 775 101 750 101C725 101 700 101 675 101C650 101 625 101 600 101C575 101 550 101 525 101C500 101 475 101 450 101C425 101 400 101 375 101C350 101 325 101 300 101C275 101 250 101 225 101C200 101 175 101 150 101C125 101 100 101 75 101C50 101 25 101 12.5 101L0 101Z" fill="#ffffff" stroke-linecap="round" stroke-linejoin="miter"></path></svg>