<svg id="visual" viewBox="0 0 900 100" width="900" height="100" xmlns="http://www.w3.org/2000/svg" xmlns:xlink="http://www.w3.org/1999/xlink" version="1.1"><path d="M0 17L12.5 25.7C25 34.3 50 51.7 75 56.3C100 61 125 53 150 53.5C175 54 200 63 225 63.3C250 63.7 275 55.3 300 44.8C325 34.3 350 21.7 375 16.2C400 10.7 425 12.3 450 15.5C475 18.7 500 23.3 525 31.2C550 39 575 50 600 47.3C625 44.7 650 28.3 675 26.5C700 24.7 725 37.3 750 48.2C775 59 800 68 825 71.3C850 74.7 875 72.3 887.5 71.2L900 70L900 101L887.5 101C875 101 850 101 825 101C800 101 775 101 750 101C725 101 700 101 675 101C650 101 625 101 600 101C575 101 550 101 525 101C500 101 475 101 450 101C425 101 400 101 375 101C350 101 325 101 300 101C275 101 250 101 225 101C200 101 175 101 150 101C125 101 100 101 75 101C50 101 25 101 12.5 101L0 101Z" fill="#ffffff" stroke-linecap="round" stroke-linejoin="miter"></path></svg>