<svg id="visual" viewBox="0 0 900 100" width="900" height="100" xmlns="http://www.w3.org/2000/svg" xmlns:xlink="http://www.w3.org/1999/xlink" version="1.1"><path d="M0 33L12.5 30.7C25 28.3 50 23.7 75 30.3C100 37 125 55 150 54.2C175 53.3 200 33.7 225 33.8C250 34 275 54 300 63.5C325 73 350 72 375 66.8C400 61.7 425 52.3 450 55.3C475 58.3 500 73.7 525 74.5C550 75.3 575 61.7 600 50.7C625 39.7 650 31.3 675 32.3C700 33.3 725 43.7 750 43.2C775 42.7 800 31.3 825 25.7C850 20 875 20 887.5 20L900 20L900 101L887.5 101C875 101 850 101 825 101C800 101 775 101 750 101C725 101 700 101 675 101C650 101 625 101 600 101C575 101 550 101 525 101C500 101 475 101 450 101C425 101 400 101 375 101C350 101 325 101 300 101C275 101 250 101 225 101C200 101 175 101 150 101C125 101 100 101 75 101C50 101 25 101 12.5 101L0 101Z" fill="#ffffff" stroke-linecap="round" stroke-linejoin="miter"></path></svg>