<svg id="visual" viewBox="0 0 900 500" width="900" height="500" xmlns="http://www.w3.org/2000/svg" xmlns:xlink="http://www.w3.org/1999/xlink" version="1.1"><path d="M0 280L16.7 274.3C33.3 268.7 66.7 257.3 100 258.3C133.3 259.3 166.7 272.7 200 267C233.3 261.3 266.7 236.7 300 235.8C333.3 235 366.7 258 400 261C433.3 264 466.7 247 500 238.7C533.3 230.3 566.7 230.7 600 226C633.3 221.3 666.7 211.7 700 217.3C733.3 223 766.7 244 800 254.7C833.3 265.3 866.7 265.7 883.3 265.8L900 266L900 501L883.3 501C866.7 501 833.3 501 800 501C766.7 501 733.3 501 700 501C666.7 501 633.3 501 600 501C566.7 501 533.3 501 500 501C466.7 501 433.3 501 400 501C366.7 501 333.3 501 300 501C266.7 501 233.3 501 200 501C166.7 501 133.3 501 100 501C66.7 501 33.3 501 16.7 501L0 501Z" fill="#ffffff" stroke-linecap="round" stroke-linejoin="miter"></path></svg>