<svg id="visual" viewBox="0 0 900 500" width="900" height="500" xmlns="http://www.w3.org/2000/svg" xmlns:xlink="http://www.w3.org/1999/xlink" version="1.1"><path d="M0 213L16.7 222.5C33.3 232 66.7 251 100 252C133.3 253 166.7 236 200 229.7C233.3 223.3 266.7 227.7 300 234.5C333.3 241.3 366.7 250.7 400 247.5C433.3 244.3 466.7 228.7 500 231C533.3 233.3 566.7 253.7 600 257.7C633.3 261.7 666.7 249.3 700 237.7C733.3 226 766.7 215 800 216.2C833.3 217.3 866.7 230.7 883.3 237.3L900 244L900 501L883.3 501C866.7 501 833.3 501 800 501C766.7 501 733.3 501 700 501C666.7 501 633.3 501 600 501C566.7 501 533.3 501 500 501C466.7 501 433.3 501 400 501C366.7 501 333.3 501 300 501C266.7 501 233.3 501 200 501C166.7 501 133.3 501 100 501C66.7 501 33.3 501 16.7 501L0 501Z" fill="#ffffff" stroke-linecap="round" stroke-linejoin="miter"></path></svg>