<svg id="visual" viewBox="0 0 900 100" width="900" height="100" xmlns="http://www.w3.org/2000/svg" xmlns:xlink="http://www.w3.org/1999/xlink" version="1.1"><path d="M0 17L12.5 16.3C25 15.7 50 14.3 75 19.3C100 24.3 125 35.7 150 46.7C175 57.7 200 68.3 225 66.3C250 64.3 275 49.7 300 51.2C325 52.7 350 70.3 375 71.5C400 72.7 425 57.3 450 52.2C475 47 500 52 525 52.2C550 52.3 575 47.7 600 42.5C625 37.3 650 31.7 675 38.7C700 45.7 725 65.3 750 71.8C775 78.3 800 71.7 825 65.2C850 58.7 875 52.3 887.5 49.2L900 46L900 101L887.5 101C875 101 850 101 825 101C800 101 775 101 750 101C725 101 700 101 675 101C650 101 625 101 600 101C575 101 550 101 525 101C500 101 475 101 450 101C425 101 400 101 375 101C350 101 325 101 300 101C275 101 250 101 225 101C200 101 175 101 150 101C125 101 100 101 75 101C50 101 25 101 12.5 101L0 101Z" fill="#ffffff" stroke-linecap="round" stroke-linejoin="miter"></path></svg>